# xmcd CD Database Entry
#
# Track frame offsets:
# 150
# 17679
# 36014
# 51310
# 68036
# 83921
# 100496
# 117656
# 136506
# 153285
# 168816
# 186613
# 203516
# 215661
# 233190
# 251525
# 269054
# 287389
#
# Disc length: 4065 seconds
#
# Revision: 2
# Processed by: cddbd v1.4PL0 Copyright (c) Steve Scherf et al.
# Submitted via: tcd 2.0b
#
DISCID=010fdf12
DTITLE=Avril Lavinge - Let Go
DYEAR=1900
DGENRE=
TTITLE0=Losing Grip
TTITLE1=Complicated
TTITLE2=Sk8er Boi
TTITLE3=I'm With You
TTITLE4=Mobile
TTITLE5=Unwanted
TTITLE6=Tomorrow
TTITLE7=Anything But Ordinary
TTITLE8=Things I'll Never Say
TTITLE9=My World
TTITLE10=Nobody's Fool
TTITLE11=Too Much To Ask
TTITLE12=Naked
TTITLE13=Losing Grip
TTITLE14=Complicated
TTITLE15=Losing Grip
TTITLE16=Complicated
TTITLE17=Losing Grip
EXTD=
EXTT0=
EXTT1=
EXTT2=
EXTT3=
EXTT4=
EXTT5=
EXTT6=
EXTT7=
EXTT8=
EXTT9=
EXTT10=
EXTT11=
EXTT12=
EXTT13=
EXTT14=
EXTT15=
EXTT16=
EXTT17=
PLAYORDER=
